<svg xmlns="http://www.w3.org/2000/svg" width="1024" height="1024" viewBox="0 0 1024 1024">
<g>
<path d="M 677.86 552.90 C655.50,557.94 634.14,548.34 625.18,529.22 C622.76,524.06 622.50,522.38 622.50,512.00 C622.50,500.93 622.63,500.25 625.87,493.78 C632.27,481.03 643.97,472.77 658.64,470.66 C679.40,467.67 698.62,477.28 706.79,494.72 C709.24,499.95 709.50,501.59 709.50,512.00 C709.50,522.40 709.24,524.05 706.80,529.25 C701.57,540.42 689.51,550.27 677.86,552.90 ZM 743.00 530.00 L 743.00 553.00 L 733.56 553.00 C728.37,553.00 723.92,552.66 723.69,552.25 C723.45,551.84 723.49,533.58 723.77,511.69 L 724.28 471.88 L 749.39 472.19 C774.38,472.50 774.52,472.51 779.50,475.16 C789.91,480.70 794.95,488.96 794.97,500.50 C794.99,511.02 790.55,519.02 781.26,525.18 C779.03,526.67 779.03,526.68 788.01,539.35 C792.96,546.33 797.00,552.27 797.00,552.55 C797.00,552.84 792.20,552.94 786.34,552.78 L 775.67 552.50 L 768.09 541.30 L 760.50 530.09 L 751.75 530.05 ZM 430.00 532.72 L 430.00 553.00 L 411.00 553.00 L 411.00 472.00 L 430.00 472.00 L 430.00 508.24 L 441.24 496.37 C447.42,489.84 455.18,481.67 458.49,478.21 L 464.50 471.92 L 475.50 472.21 L 486.50 472.50 L 470.17 489.72 C459.45,501.03 454.10,507.38 454.58,508.22 C454.99,508.92 458.17,513.10 461.65,517.50 C465.13,521.90 472.69,531.58 478.45,539.00 L 488.91 552.50 L 478.27 552.79 C472.42,552.94 467.11,552.87 466.48,552.63 C465.85,552.39 460.02,545.40 453.54,537.09 C447.06,528.79 441.17,522.00 440.45,522.00 C439.74,522.00 437.09,524.41 434.58,527.36 ZM 873.50 537.50 L 874.08 553.00 L 809.00 553.00 L 809.00 472.00 L 872.09 472.00 L 871.50 486.50 L 850.31 486.77 L 829.12 487.04 L 828.48 491.27 C828.13,493.60 828.00,497.30 828.17,499.50 L 828.50 503.50 L 847.75 503.77 L 867.00 504.04 L 867.00 518.96 L 828.50 519.50 L 828.57 528.00 L 828.64 536.50 L 851.07 537.00 ZM 589.00 553.95 C581.73,555.11 581.55,555.11 574.30,553.90 C564.74,552.30 556.19,548.14 550.04,542.09 C533.42,525.74 532.92,499.51 548.93,483.08 C562.79,468.85 588.36,465.76 605.69,476.22 C608.55,477.94 611.78,480.56 612.87,482.03 L 614.85 484.71 L 608.94 490.56 L 603.03 496.41 L 600.27 493.81 C590.13,484.31 571.59,484.59 563.34,494.36 C553.77,505.70 555.12,524.00 566.11,531.97 C576.92,539.79 589.78,539.40 599.40,530.96 L 603.15 527.67 L 615.38 539.90 L 611.44 543.62 C606.34,548.43 597.19,552.64 589.00,553.95 ZM 658.33 536.20 C674.59,541.97 690.52,529.93 690.35,511.98 C690.25,501.36 685.57,493.37 676.80,488.90 C673.44,487.18 671.30,486.87 665.02,487.15 C654.94,487.61 649.14,490.98 644.61,499.00 C641.90,503.80 641.50,505.46 641.50,512.00 C641.50,524.65 646.64,532.05 658.33,536.20 ZM 196.99 576.15 L 196.98 600.50 L 151.10 647.50 L 151.05 640.49 L 151.00 633.48 L 187.00 597.52 L 187.00 547.48 L 218.50 516.05 L 240.85 515.96 C253.14,515.91 263.42,516.09 263.70,516.37 C264.63,517.30 261.85,524.01 260.17,524.88 C259.25,525.36 250.37,525.56 240.44,525.33 L 222.38 524.91 L 209.69 538.36 L 197.00 551.81 ZM 351.26 650.40 C350.33,651.34 305.66,651.07 304.17,650.12 C303.43,649.66 297.51,642.58 291.01,634.39 L 279.19 619.50 L 300.74 619.23 C318.30,619.01 322.60,619.23 323.90,620.39 C324.78,621.17 326.47,621.97 327.66,622.16 C329.96,622.52 352.35,649.32 351.26,650.40 ZM 168.51 597.56 C163.70,599.57 160.83,599.36 156.91,596.72 C152.73,593.90 151.03,590.68 151.01,585.54 C151.00,582.31 151.69,580.88 154.75,577.74 L 158.50 573.89 L 158.50 544.07 L 184.00 518.44 C207.15,495.18 214.16,489.21 217.17,490.23 C218.09,490.54 213.78,499.48 211.50,502.00 C210.67,502.91 210.00,504.02 210.00,504.45 C210.00,504.89 200.55,514.89 189.00,526.66 L 168.00 548.08 L 168.00 561.02 C168.00,573.59 168.07,574.00 170.41,575.54 C173.33,577.45 176.00,582.76 176.00,586.65 C175.99,590.79 172.48,595.90 168.51,597.56 ZM 321.00 613.13 C321.00,613.61 310.66,614.00 298.03,614.00 L 275.05 614.00 L 266.54 603.25 C261.85,597.34 258.16,592.06 258.34,591.53 C258.51,590.99 259.97,590.28 261.57,589.94 C266.18,588.99 270.77,586.23 273.17,582.98 C275.35,580.03 275.48,580.00 284.97,580.00 L 294.56 580.00 L 300.53 587.16 C317.81,607.88 321.00,611.93 321.00,613.13 ZM 187.80 493.80 C186.28,495.32 155.33,495.42 152.75,493.92 C151.20,493.02 151.00,491.07 151.00,476.65 C151.00,465.34 151.37,460.03 152.20,459.20 C153.88,457.52 186.12,457.52 187.80,459.20 C189.48,460.88 189.48,492.12 187.80,493.80 ZM 216.79 580.71 C214.48,583.07 212.23,585.00 211.79,585.00 C211.36,585.00 211.00,578.41 211.00,570.37 L 211.00 555.73 L 220.18 546.37 C225.24,541.21 229.86,537.00 230.45,537.00 C231.05,537.00 236.02,541.50 241.50,547.00 L 251.46 557.00 L 257.01 557.00 C263.22,557.00 266.20,558.56 268.51,563.01 C271.11,568.06 270.45,573.54 266.75,577.55 C258.60,586.38 244.37,580.23 245.22,568.23 C245.51,564.13 245.24,563.70 238.26,556.77 L 231.01 549.56 L 226.01 554.49 L 221.00 559.42 L 221.00 576.42 ZM 743.00 487.00 L 743.00 514.00 L 753.53 514.00 C769.72,514.00 775.00,510.68 775.00,500.50 C775.00,490.32 769.72,487.00 753.53,487.00 ZM 187.00 452.00 C185.19,453.81 183.67,454.00 170.67,454.00 C162.78,454.00 156.02,453.68 155.63,453.30 C154.92,452.59 186.83,420.00 188.24,420.00 C188.66,420.00 189.00,426.75 189.00,435.00 C189.00,448.67 188.82,450.18 187.00,452.00 ZM 168.29 517.39 C159.92,525.98 152.60,533.00 152.01,533.00 C151.30,533.00 151.04,527.73 151.23,516.75 L 151.50 500.50 L 167.84 500.22 C177.43,500.06 184.04,500.33 183.84,500.86 C183.65,501.37 176.65,508.80 168.29,517.39 ZM 172.89 427.72 C166.60,434.20 159.09,441.71 156.20,444.41 L 150.95 449.32 L 151.50 416.50 L 167.91 416.22 L 184.33 415.95 ZM 210.46 474.22 C201.68,483.18 194.15,490.65 193.72,490.84 C193.30,491.03 193.07,483.83 193.22,474.84 L 193.50 458.50 L 209.96 458.22 L 226.42 457.95 ZM 180.00 406.64 L 184.50 410.98 L 169.50 410.96 C161.16,410.95 153.72,410.49 152.75,409.92 C151.19,409.01 151.01,407.15 151.12,392.70 C151.18,383.79 151.45,377.40 151.72,378.50 C152.40,381.31 154.74,383.72 157.44,384.40 C159.77,384.98 165.28,391.31 165.65,393.82 C165.94,395.81 169.07,398.99 172.50,400.76 C174.15,401.61 177.52,404.26 180.00,406.64 ZM 526.00 513.00 L 526.00 527.00 L 492.00 527.00 L 492.00 513.00 ZM 226.00 453.02 C226.00,453.61 220.39,454.00 211.72,454.00 C210.70,454.00 209.73,454.00 208.82,454.01 C200.89,454.03 196.92,454.04 194.94,452.06 C192.96,450.08 192.98,446.09 193.03,438.11 C193.03,437.19 193.04,436.22 193.04,435.19 C193.08,420.79 193.19,419.77 194.49,422.75 C195.27,424.54 197.04,426.52 198.43,427.15 C199.82,427.78 201.25,429.20 201.59,430.30 C201.94,431.39 203.97,434.18 206.10,436.49 C208.22,438.80 210.13,441.76 210.33,443.08 C210.63,445.02 211.49,445.61 214.86,446.19 C219.81,447.03 221.00,447.67 221.00,449.45 C221.00,450.18 222.12,451.07 223.50,451.41 C224.88,451.76 226.00,452.48 226.00,453.02 ZM 159.45 588.57 C162.34,592.97 168.00,591.22 168.00,585.92 C168.00,582.49 165.73,580.60 162.54,581.40 C158.85,582.33 157.47,585.54 159.45,588.57 ZM 254.57 572.43 C257.41,575.27 261.20,574.20 262.45,570.20 C263.38,567.22 261.51,565.00 258.08,565.00 C253.33,565.00 251.35,569.20 254.57,572.43 Z" fill="rgb(21,100,150)"/>
<path d="M 322.90 403.62 C321.99,404.71 317.33,405.00 300.38,405.00 C288.62,405.00 279.00,404.71 279.00,404.36 C279.00,403.81 291.77,387.87 300.74,377.23 L 303.50 373.96 L 351.26 374.50 L 340.38 387.74 C332.68,397.12 328.70,401.17 326.77,401.61 C325.27,401.96 323.53,402.86 322.90,403.62 ZM 275.68 435.75 C272.50,440.56 271.99,440.75 269.58,438.09 C268.63,437.04 265.64,435.23 262.93,434.06 C260.22,432.90 258.01,431.62 258.01,431.22 C258.02,430.82 259.83,428.25 262.03,425.50 C264.22,422.75 267.83,418.14 270.04,415.25 L 274.06 410.00 L 297.53 410.00 C310.44,410.00 321.00,410.28 321.00,410.63 C321.00,411.30 307.23,427.74 306.06,428.46 C305.68,428.70 303.60,428.26 301.43,427.49 C292.06,424.15 281.03,427.69 275.68,435.75 ZM 226.00 453.02 C226.00,452.48 224.88,451.76 223.50,451.41 C222.12,451.07 221.00,450.18 221.00,449.45 C221.00,447.67 219.81,447.03 214.86,446.19 C211.49,445.61 210.63,445.02 210.33,443.08 C210.13,441.76 208.22,438.80 206.10,436.49 C203.97,434.18 201.94,431.39 201.59,430.30 C201.25,429.20 199.82,427.78 198.43,427.15 C197.04,426.52 195.27,424.54 194.49,422.75 C193.19,419.77 193.08,420.79 193.04,435.19 C193.04,436.22 193.03,437.19 193.03,438.11 C192.98,446.09 192.96,450.08 194.94,452.06 C196.20,453.32 198.25,453.77 201.61,453.93 C198.26,453.82 196.21,453.37 194.95,452.13 C192.95,450.14 192.97,446.12 192.99,438.17 C193.00,437.18 193.00,436.13 193.00,435.01 C193.00,421.82 193.27,418.87 194.60,417.55 C195.95,416.19 198.69,415.99 212.85,416.23 L 229.50 416.50 L 229.75 433.50 C229.89,443.11 229.58,451.15 229.04,452.00 C228.69,452.55 227.83,452.92 225.85,453.18 C225.95,453.13 226.00,453.08 226.00,453.02 ZM 180.00 406.64 C177.52,404.26 174.15,401.61 172.50,400.76 C169.07,398.99 165.94,395.81 165.65,393.82 C165.28,391.31 159.77,384.98 157.44,384.40 C154.74,383.72 152.40,381.31 151.72,378.50 C151.45,377.40 151.18,383.79 151.12,392.70 C151.05,402.10 151.10,406.17 151.57,408.12 C151.08,406.16 151.00,402.06 151.00,392.65 C151.00,381.34 151.37,376.03 152.20,375.20 C153.04,374.36 158.46,374.00 170.16,374.00 C185.72,374.00 187.00,374.14 187.96,375.93 C188.54,377.00 189.00,384.11 189.00,391.80 C189.00,404.38 188.80,405.99 186.93,408.37 L 184.85 411.00 L 169.68 410.97 C165.28,410.96 161.14,410.83 158.04,410.63 C161.10,410.83 165.18,410.95 169.50,410.96 L 184.50 410.98 ZM 228.80 409.80 C227.97,410.63 222.83,411.00 212.15,411.00 L 196.69 411.00 L 198.55 408.75 C202.18,404.36 228.49,378.00 229.24,378.00 C230.57,378.00 230.15,408.45 228.80,409.80 ZM 210.19 389.99 C201.22,398.80 193.68,406.00 193.42,406.00 C193.16,406.00 193.07,398.91 193.22,390.25 L 193.50 374.50 L 210.00 374.24 L 226.50 373.98 Z" fill="rgb(45,152,199)"/>
<path d="M 325.00 586.00 C325.00,598.65 324.89,609.00 324.75,609.00 C324.61,609.00 320.23,603.77 315.00,597.38 C309.77,590.99 303.49,583.34 301.03,580.38 L 296.57 575.00 L 279.00 575.00 L 279.00 570.47 C279.00,563.95 276.83,559.63 269.75,552.05 C266.31,548.37 262.73,544.00 261.79,542.34 C260.08,539.32 260.08,539.32 263.55,535.95 C264.93,534.62 265.69,533.62 266.58,533.49 C268.16,533.25 270.14,535.71 276.61,543.73 C277.41,544.73 278.29,545.82 279.25,547.00 C286.17,555.55 289.33,559.53 293.45,561.39 C297.04,563.00 301.35,563.00 309.51,563.00 L 310.15 563.00 L 325.00 563.00 ZM 228.96 649.55 C228.00,650.70 224.55,651.00 212.03,651.00 C198.07,651.00 196.12,650.80 194.65,649.17 C193.26,647.63 193.00,644.83 193.00,631.37 C193.00,620.28 193.37,615.03 194.20,614.20 C196.04,612.36 227.36,612.53 228.90,614.38 C230.54,616.35 230.59,647.59 228.96,649.55 ZM 398.40 648.96 C398.49,650.29 395.81,650.54 378.97,650.77 L 359.43 651.04 L 356.41 647.77 C349.40,640.20 334.00,620.87 334.00,619.66 C334.00,619.30 343.60,619.00 355.34,619.00 L 376.68 619.00 L 387.49 633.21 C393.43,641.03 398.34,648.12 398.40,648.96 ZM 378.81 401.19 L 375.50 404.88 L 357.00 405.34 C339.27,405.79 333.00,405.52 333.00,404.31 C333.00,404.00 336.05,400.09 339.78,395.62 C343.50,391.15 348.94,384.46 351.86,380.75 L 357.17 374.00 L 378.09 374.00 C389.59,374.00 399.00,374.35 399.00,374.77 C399.00,375.87 384.46,394.89 378.81,401.19 ZM 326.00 556.93 C326.00,557.64 320.68,558.00 310.08,558.00 L 294.17 558.00 L 285.30 547.25 C280.43,541.34 275.19,534.81 273.66,532.74 L 270.88 528.98 L 276.19 523.01 L 281.50 517.05 L 289.09 517.02 L 296.69 517.00 L 300.66 521.75 C306.28,528.45 323.57,551.33 324.90,553.80 C325.50,554.94 326.00,556.35 326.00,556.93 ZM 257.88 490.75 L 241.22 508.00 L 228.83 508.00 L 230.67 505.57 C231.67,504.24 243.62,491.71 257.21,477.74 C281.58,452.69 281.92,452.28 281.35,448.80 C280.19,441.62 285.94,435.00 293.34,435.00 C298.58,435.00 301.76,436.56 304.00,440.23 C309.64,449.48 302.82,460.00 291.19,460.00 C287.71,460.00 286.68,460.68 280.93,466.75 C277.42,470.46 267.05,481.26 257.88,490.75 ZM 371.00 613.00 C371.00,613.63 364.01,614.00 352.15,614.00 C335.17,614.00 333.15,613.82 331.65,612.17 C330.21,610.58 330.00,607.26 330.00,586.17 C330.00,571.95 330.38,562.00 330.93,562.00 C331.44,562.00 334.70,565.66 338.18,570.12 C341.66,574.59 346.53,580.78 349.02,583.87 C360.22,597.81 371.00,612.09 371.00,613.00 ZM 336.00 455.29 C333.52,458.38 331.16,460.93 330.75,460.95 C329.41,461.04 329.85,412.55 331.20,411.20 C332.05,410.35 338.02,410.00 351.70,410.00 C362.32,410.00 371.00,410.26 371.00,410.57 C371.00,410.89 364.81,418.80 357.25,428.14 C349.69,437.49 342.83,446.16 342.00,447.41 C341.17,448.66 338.48,452.21 336.00,455.29 ZM 202.60 512.60 C207.12,507.85 210.00,504.69 210.00,504.45 C210.00,504.02 210.67,502.91 211.50,502.00 C213.78,499.48 218.09,490.54 217.17,490.23 C214.16,489.21 207.15,495.18 184.00,518.44 L 171.41 531.09 L 181.50 520.81 C194.15,507.93 212.92,488.60 223.21,477.86 C241.72,458.55 241.92,458.29 241.34,454.68 C240.04,446.70 245.32,441.00 254.00,441.00 C258.58,441.00 259.61,441.41 262.60,444.40 C265.43,447.23 266.00,448.53 266.00,452.15 C265.99,460.47 260.27,466.00 251.65,466.00 C247.76,466.00 246.80,466.47 243.93,469.75 C242.13,471.81 224.31,490.30 204.33,510.83 ZM 321.09 473.33 C318.87,476.17 316.03,479.75 314.78,481.28 L 312.50 484.06 L 310.00 479.31 C308.62,476.69 305.57,473.09 303.21,471.31 L 298.92 468.06 L 302.26 466.67 C312.42,462.42 317.09,447.57 311.57,437.03 L 309.23 432.56 L 316.76 423.76 C320.90,418.92 324.44,415.10 324.62,415.29 C324.80,415.47 324.99,427.44 325.03,441.89 L 325.12 468.16 ZM 252.96 525.39 C256.93,525.31 259.68,525.14 260.17,524.88 C261.85,524.01 264.63,517.30 263.70,516.37 C263.53,516.20 259.79,516.07 254.18,516.00 L 258.68 516.00 L 268.59 505.33 C278.17,495.01 278.50,494.49 278.64,489.82 C278.89,481.52 283.78,476.63 291.71,476.75 C297.32,476.84 301.06,479.38 302.68,484.20 C304.33,489.13 302.86,494.83 299.04,498.25 C296.49,500.53 295.05,501.00 290.57,501.00 L 285.17 501.00 L 273.63 513.25 L 262.08 525.50 ZM 228.74 607.75 C227.62,609.17 198.00,609.60 198.00,608.20 C198.00,607.75 205.09,600.22 213.75,591.45 L 229.50 575.50 L 230.16 586.00 C230.87,597.32 230.33,605.75 228.74,607.75 ZM 187.13 649.35 C185.97,650.74 183.53,651.00 171.38,651.00 C162.36,651.00 157.00,650.62 157.00,649.99 C157.00,649.43 163.83,641.99 172.18,633.44 C184.63,620.71 187.53,618.20 188.28,619.54 C189.74,622.14 188.76,647.38 187.13,649.35 ZM 288.00 492.00 C290.41,494.41 290.92,494.45 293.78,492.44 C297.61,489.76 296.15,484.00 291.63,484.00 C289.31,484.00 286.00,486.74 286.00,488.65 C286.00,489.39 286.90,490.90 288.00,492.00 ZM 250.65 456.17 C253.79,459.63 258.00,457.81 258.00,453.00 C258.00,449.86 256.33,448.00 253.50,448.00 C249.17,448.00 247.53,452.71 250.65,456.17 ZM 290.75 450.92 C294.93,453.36 298.37,451.12 297.82,446.31 C297.55,443.92 296.99,443.45 294.10,443.18 C292.06,442.98 290.38,443.38 289.87,444.18 C288.46,446.41 288.90,449.85 290.75,450.92 ZM 229.87 516.00 L 218.50 516.05 L 187.00 547.48 L 202.76 531.74 L 218.52 516.00 ZM 231.60 525.12 L 222.29 525.01 L 222.38 524.91 ZM 178.32 537.55 L 168.00 548.16 L 168.00 548.08 Z" fill="rgb(86,162,93)"/>
<path d="M 274.02 438.96 C273.32,440.63 272.47,441.98 272.13,441.94 C271.78,441.91 270.40,440.50 269.06,438.80 C267.71,437.11 264.68,434.86 262.31,433.81 C260.69,433.10 259.28,432.32 258.54,431.78 C259.36,432.37 261.02,433.24 262.93,434.06 C265.64,435.23 268.63,437.04 269.58,438.09 C271.88,440.63 272.44,440.57 275.25,436.39 C274.81,437.19 274.40,438.04 274.02,438.96 ZM 282.86 429.17 C283.88,428.59 284.94,428.10 286.04,427.69 C285.50,427.90 284.96,428.13 284.42,428.38 C283.88,428.64 283.35,428.90 282.86,429.17 ZM 258.01 431.21 C258.01,431.21 258.01,431.21 258.01,431.20 C258.02,430.82 259.83,428.25 262.03,425.50 C259.84,428.23 258.04,430.79 258.01,431.21 Z" fill="rgb(133,170,182)"/>
<path d="M 0.00 512.00 L 0.00 0.00 L 512.00 0.00 L 1024.00 0.00 L 1024.00 512.00 L 1024.00 1024.00 L 512.00 1024.00 L 0.00 1024.00 L 0.00 512.00 ZM 187.13 649.35 C188.76,647.38 189.74,622.14 188.28,619.54 C187.53,618.20 184.63,620.71 172.18,633.44 C163.83,641.99 157.00,649.43 157.00,649.99 C157.00,650.62 162.36,651.00 171.38,651.00 C183.53,651.00 185.97,650.74 187.13,649.35 ZM 228.96 649.55 C230.59,647.59 230.54,616.35 228.90,614.38 C227.36,612.53 196.04,612.36 194.20,614.20 C193.37,615.03 193.00,620.28 193.00,631.37 C193.00,644.83 193.26,647.63 194.65,649.17 C196.12,650.80 198.07,651.00 212.03,651.00 C224.55,651.00 228.00,650.70 228.96,649.55 ZM 351.26 650.40 C352.35,649.32 329.96,622.52 327.66,622.16 C326.47,621.97 324.78,621.17 323.90,620.39 C322.60,619.23 318.30,619.01 300.74,619.23 L 279.19 619.50 L 291.01 634.39 C297.51,642.58 303.43,649.66 304.17,650.12 C305.66,651.07 350.33,651.34 351.26,650.40 ZM 398.40 648.96 C398.34,648.12 393.43,641.03 387.49,633.21 L 376.68 619.00 L 355.34 619.00 C343.60,619.00 334.00,619.30 334.00,619.66 C334.00,620.87 349.40,640.20 356.41,647.77 L 359.43 651.04 L 378.97 650.77 C395.81,650.54 398.49,650.29 398.40,648.96 ZM 196.99 576.15 L 197.00 551.81 L 209.64 538.41 L 222.29 525.01 L 242.18 525.25 L 262.08 525.50 L 273.63 513.25 L 285.17 501.00 L 290.57 501.00 C295.05,501.00 296.49,500.53 299.04,498.25 C302.86,494.83 304.33,489.13 302.68,484.20 C301.06,479.38 297.32,476.84 291.71,476.75 C283.78,476.63 278.89,481.52 278.64,489.82 C278.50,494.49 278.17,495.01 268.59,505.33 L 258.68 516.00 L 238.60 516.00 L 218.52 516.00 L 202.76 531.74 L 187.00 547.48 L 187.00 572.50 L 187.00 597.52 L 169.00 615.50 L 151.00 633.48 L 151.05 640.49 L 151.10 647.50 L 174.04 624.00 L 196.98 600.50 L 196.99 576.15 ZM 321.00 613.13 C321.00,611.93 317.81,607.88 300.53,587.16 L 294.56 580.00 L 284.97 580.00 C275.48,580.00 275.35,580.03 273.17,582.98 C270.77,586.23 266.18,588.99 261.57,589.94 C259.97,590.28 258.51,590.99 258.34,591.53 C258.16,592.06 261.85,597.34 266.54,603.25 L 275.05 614.00 L 298.03 614.00 C310.66,614.00 321.00,613.61 321.00,613.13 ZM 371.00 613.00 C371.00,612.09 360.22,597.81 349.02,583.87 C346.53,580.78 341.66,574.59 338.18,570.12 C334.70,565.66 331.44,562.00 330.93,562.00 C330.38,562.00 330.00,571.95 330.00,586.17 C330.00,607.26 330.21,610.58 331.65,612.17 C333.15,613.82 335.17,614.00 352.15,614.00 C364.01,614.00 371.00,613.63 371.00,613.00 ZM 228.74 607.75 C230.33,605.75 230.87,597.32 230.16,586.00 L 229.50 575.50 L 213.75 591.45 C205.09,600.22 198.00,607.75 198.00,608.20 C198.00,609.60 227.62,609.17 228.74,607.75 ZM 325.00 586.00 L 325.00 563.00 L 310.15 563.00 C291.98,563.00 292.35,563.19 279.25,547.00 C266.31,531.01 267.66,531.96 263.55,535.95 C260.08,539.32 260.08,539.32 261.79,542.34 C262.73,544.00 266.31,548.37 269.75,552.05 C276.83,559.63 279.00,563.95 279.00,570.47 L 279.00 575.00 L 287.78 575.00 L 296.57 575.00 L 301.03 580.38 C303.49,583.34 309.77,590.99 315.00,597.38 C320.23,603.77 324.61,609.00 324.75,609.00 C324.89,609.00 325.00,598.65 325.00,586.00 ZM 168.51 597.56 C172.48,595.90 175.99,590.79 176.00,586.65 C176.00,582.76 173.33,577.45 170.41,575.54 C168.07,574.00 168.00,573.59 168.00,561.06 L 168.00 548.16 L 204.33 510.83 C224.31,490.30 242.13,471.81 243.93,469.75 C246.80,466.47 247.76,466.00 251.65,466.00 C260.27,466.00 265.99,460.47 266.00,452.15 C266.00,448.53 265.43,447.23 262.60,444.40 C259.61,441.41 258.58,441.00 254.00,441.00 C245.32,441.00 240.04,446.70 241.34,454.68 C241.92,458.29 241.72,458.55 223.21,477.86 C212.92,488.60 194.15,507.93 181.50,520.81 L 158.50 544.25 L 158.50 559.07 L 158.50 573.89 L 154.75 577.74 C151.69,580.88 151.00,582.31 151.01,585.54 C151.03,590.68 152.73,593.90 156.91,596.72 C160.83,599.36 163.70,599.57 168.51,597.56 ZM 216.79 580.71 L 221.00 576.42 L 221.00 567.92 L 221.00 559.42 L 226.01 554.49 L 231.01 549.56 L 238.26 556.77 C245.24,563.70 245.51,564.13 245.22,568.23 C244.37,580.23 258.60,586.38 266.75,577.55 C270.45,573.54 271.11,568.06 268.51,563.01 C266.20,558.56 263.22,557.00 257.01,557.00 L 251.46 557.00 L 241.50 547.00 C236.02,541.50 231.05,537.00 230.45,537.00 C229.86,537.00 225.24,541.21 220.18,546.37 L 211.00 555.73 L 211.00 570.37 C211.00,578.41 211.36,585.00 211.79,585.00 C212.23,585.00 214.48,583.07 216.79,580.71 ZM 326.00 556.93 C326.00,556.35 325.50,554.94 324.90,553.80 C323.57,551.33 306.28,528.45 300.66,521.75 L 296.69 517.00 L 289.09 517.02 L 281.50 517.05 L 276.19 523.01 L 270.88 528.98 L 273.66 532.74 C275.19,534.81 280.43,541.34 285.30,547.25 L 294.17 558.00 L 310.08 558.00 C320.68,558.00 326.00,557.64 326.00,556.93 ZM 589.00 553.95 C597.19,552.64 606.34,548.43 611.44,543.62 L 615.38 539.90 L 609.26 533.78 L 603.15 527.67 L 599.40 530.96 C589.78,539.40 576.92,539.79 566.11,531.97 C555.12,524.00 553.77,505.70 563.34,494.36 C571.59,484.59 590.13,484.31 600.27,493.81 L 603.03 496.41 L 608.94 490.56 L 614.85 484.71 L 612.87 482.03 C611.78,480.56 608.55,477.94 605.69,476.22 C588.36,465.76 562.79,468.85 548.93,483.08 C532.92,499.51 533.42,525.74 550.04,542.09 C556.19,548.14 564.74,552.30 574.30,553.90 C581.55,555.11 581.73,555.11 589.00,553.95 ZM 677.86 552.90 C689.51,550.27 701.57,540.42 706.80,529.25 C709.24,524.05 709.50,522.40 709.50,512.00 C709.50,501.59 709.24,499.95 706.79,494.72 C698.62,477.28 679.40,467.67 658.64,470.66 C643.97,472.77 632.27,481.03 625.87,493.78 C622.63,500.25 622.50,500.93 622.50,512.00 C622.50,522.38 622.76,524.06 625.18,529.22 C634.14,548.34 655.50,557.94 677.86,552.90 ZM 430.00 542.86 L 430.00 532.72 L 434.58 527.36 C437.09,524.41 439.74,522.00 440.45,522.00 C441.17,522.00 447.06,528.79 453.54,537.09 C460.02,545.40 465.85,552.39 466.48,552.63 C467.11,552.87 472.42,552.94 478.27,552.79 L 488.91 552.50 L 478.45 539.00 C472.69,531.58 465.13,521.90 461.65,517.50 C458.17,513.10 454.99,508.92 454.58,508.22 C454.10,507.38 459.45,501.03 470.17,489.72 L 486.50 472.50 L 475.50 472.21 L 464.50 471.92 L 458.49 478.21 C455.18,481.67 447.42,489.84 441.24,496.37 L 430.00 508.24 L 430.00 490.12 L 430.00 472.00 L 420.50 472.00 L 411.00 472.00 L 411.00 512.50 L 411.00 553.00 L 420.50 553.00 L 430.00 553.00 L 430.00 542.86 ZM 743.00 541.50 L 743.00 530.00 L 751.75 530.05 L 760.50 530.09 L 768.09 541.30 L 775.67 552.50 L 786.34 552.78 C792.20,552.94 797.00,552.84 797.00,552.55 C797.00,552.27 792.96,546.33 788.01,539.35 C779.03,526.68 779.03,526.67 781.26,525.18 C790.55,519.02 794.99,511.02 794.97,500.50 C794.95,488.96 789.91,480.70 779.50,475.16 C774.52,472.51 774.38,472.50 749.39,472.19 L 724.28 471.88 L 723.77 511.69 C723.49,533.58 723.45,551.84 723.69,552.25 C723.92,552.66 728.37,553.00 733.56,553.00 L 743.00 553.00 L 743.00 541.50 ZM 873.79 545.25 L 873.50 537.50 L 851.07 537.00 L 828.64 536.50 L 828.57 528.00 L 828.50 519.50 L 847.75 519.23 L 867.00 518.96 L 867.00 511.50 L 867.00 504.04 L 847.75 503.77 L 828.50 503.50 L 828.17 499.50 C828.00,497.30 828.13,493.60 828.48,491.27 L 829.12 487.04 L 850.31 486.77 L 871.50 486.50 L 871.79 479.25 L 872.09 472.00 L 840.54 472.00 L 809.00 472.00 L 809.00 512.50 L 809.00 553.00 L 841.54 553.00 L 874.08 553.00 L 873.79 545.25 ZM 168.29 517.39 C176.65,508.80 183.65,501.37 183.84,500.86 C184.04,500.33 177.43,500.06 167.84,500.22 L 151.50 500.50 L 151.23 516.75 C151.04,527.73 151.30,533.00 152.01,533.00 C152.60,533.00 159.92,525.98 168.29,517.39 ZM 526.00 520.00 L 526.00 513.00 L 509.00 513.00 L 492.00 513.00 L 492.00 520.00 L 492.00 527.00 L 509.00 527.00 L 526.00 527.00 L 526.00 520.00 ZM 257.88 490.75 C267.05,481.26 277.42,470.46 280.93,466.75 C286.68,460.68 287.71,460.00 291.19,460.00 C302.82,460.00 309.64,449.48 304.00,440.23 C301.76,436.56 298.58,435.00 293.34,435.00 C285.94,435.00 280.19,441.62 281.35,448.80 C281.92,452.28 281.58,452.69 257.21,477.74 C243.62,491.71 231.67,504.24 230.67,505.57 L 228.83 508.00 L 235.02 508.00 L 241.22 508.00 L 257.88 490.75 ZM 187.80 493.80 C189.48,492.12 189.48,460.88 187.80,459.20 C186.12,457.52 153.88,457.52 152.20,459.20 C151.37,460.03 151.00,465.34 151.00,476.65 C151.00,491.07 151.20,493.02 152.75,493.92 C155.33,495.42 186.28,495.32 187.80,493.80 ZM 210.46 474.22 L 226.42 457.95 L 209.96 458.22 L 193.50 458.50 L 193.22 474.84 C193.07,483.83 193.30,491.03 193.72,490.84 C194.15,490.65 201.68,483.18 210.46,474.22 ZM 321.09 473.33 L 325.12 468.16 L 325.03 441.89 C324.99,427.44 324.80,415.47 324.62,415.29 C324.44,415.10 320.90,418.92 316.76,423.76 L 309.23 432.56 L 311.57 437.03 C317.09,447.57 312.42,462.42 302.26,466.67 L 298.92 468.06 L 303.21 471.31 C305.57,473.09 308.62,476.69 310.00,479.31 L 312.50 484.06 L 314.78 481.28 C316.03,479.75 318.87,476.17 321.09,473.33 ZM 336.00 455.29 C338.48,452.21 341.17,448.66 342.00,447.41 C342.83,446.16 349.69,437.49 357.25,428.14 C364.81,418.80 371.00,410.89 371.00,410.57 C371.00,410.26 362.32,410.00 351.70,410.00 C338.02,410.00 332.05,410.35 331.20,411.20 C329.85,412.55 329.41,461.04 330.75,460.95 C331.16,460.93 333.52,458.38 336.00,455.29 ZM 187.00 452.00 C188.82,450.18 189.00,448.67 189.00,435.00 C189.00,426.75 188.66,420.00 188.24,420.00 C186.83,420.00 154.92,452.59 155.63,453.30 C156.02,453.68 162.78,454.00 170.67,454.00 C183.67,454.00 185.19,453.81 187.00,452.00 ZM 229.04 452.00 C229.58,451.15 229.89,443.11 229.75,433.50 L 229.50 416.50 L 212.85 416.23 C198.69,415.99 195.95,416.19 194.60,417.55 C193.27,418.87 193.00,421.82 193.00,435.01 C193.00,455.36 191.79,454.21 212.79,453.80 C225.05,453.56 228.27,453.20 229.04,452.00 ZM 172.89 427.72 L 184.33 415.95 L 167.91 416.22 L 151.50 416.50 L 151.22 432.91 L 150.95 449.32 L 156.20 444.41 C159.09,441.71 166.60,434.20 172.89,427.72 ZM 274.02 438.96 C276.12,433.89 279.09,430.87 284.42,428.38 C290.15,425.72 295.65,425.43 301.43,427.49 C303.60,428.26 305.68,428.70 306.06,428.46 C307.23,427.74 321.00,411.30 321.00,410.63 C321.00,410.28 310.44,410.00 297.53,410.00 L 274.06 410.00 L 270.04 415.25 C267.83,418.14 264.22,422.75 262.03,425.50 C259.83,428.25 258.02,430.82 258.01,431.20 C258.01,431.59 259.94,432.76 262.31,433.81 C264.68,434.86 267.71,437.11 269.06,438.80 C270.40,440.50 271.78,441.91 272.13,441.94 C272.47,441.98 273.32,440.63 274.02,438.96 ZM 186.93 408.37 C188.80,405.99 189.00,404.38 189.00,391.80 C189.00,384.11 188.54,377.00 187.96,375.93 C187.00,374.14 185.72,374.00 170.16,374.00 C158.46,374.00 153.04,374.36 152.20,375.20 C151.37,376.03 151.00,381.34 151.00,392.65 C151.00,407.07 151.20,409.02 152.75,409.92 C153.72,410.49 161.24,410.95 169.68,410.97 L 184.85 411.00 L 186.93 408.37 ZM 228.80 409.80 C230.15,408.45 230.57,378.00 229.24,378.00 C228.49,378.00 202.18,404.36 198.55,408.75 L 196.69 411.00 L 212.15 411.00 C222.83,411.00 227.97,410.63 228.80,409.80 ZM 210.19 389.99 L 226.50 373.98 L 210.00 374.24 L 193.50 374.50 L 193.22 390.25 C193.07,398.91 193.16,406.00 193.42,406.00 C193.68,406.00 201.22,398.80 210.19,389.99 ZM 378.81 401.19 C384.46,394.89 399.00,375.87 399.00,374.77 C399.00,374.35 389.59,374.00 378.09,374.00 L 357.17 374.00 L 351.86 380.75 C348.94,384.46 343.50,391.15 339.78,395.62 C336.05,400.09 333.00,404.00 333.00,404.31 C333.00,405.52 339.27,405.79 357.00,405.34 L 375.50 404.88 L 378.81 401.19 ZM 322.90 403.62 C323.53,402.86 325.27,401.96 326.77,401.61 C328.70,401.17 332.68,397.12 340.38,387.74 L 351.26 374.50 L 327.38 374.23 L 303.50 373.96 L 300.74 377.23 C291.77,387.87 279.00,403.81 279.00,404.36 C279.00,404.71 288.62,405.00 300.38,405.00 C317.33,405.00 321.99,404.71 322.90,403.62 ZM 288.00 492.00 C286.90,490.90 286.00,489.39 286.00,488.65 C286.00,486.74 289.31,484.00 291.63,484.00 C296.15,484.00 297.61,489.76 293.78,492.44 C290.92,494.45 290.41,494.41 288.00,492.00 ZM 159.45 588.57 C157.47,585.54 158.85,582.33 162.54,581.40 C165.73,580.60 168.00,582.49 168.00,585.92 C168.00,591.22 162.34,592.97 159.45,588.57 ZM 250.65 456.17 C247.53,452.71 249.17,448.00 253.50,448.00 C256.33,448.00 258.00,449.86 258.00,453.00 C258.00,457.81 253.79,459.63 250.65,456.17 ZM 254.57 572.43 C251.35,569.20 253.33,565.00 258.08,565.00 C261.51,565.00 263.38,567.22 262.45,570.20 C261.20,574.20 257.41,575.27 254.57,572.43 ZM 658.33 536.20 C646.64,532.05 641.50,524.65 641.50,512.00 C641.50,505.46 641.90,503.80 644.61,499.00 C649.14,490.98 654.94,487.61 665.02,487.15 C671.30,486.87 673.44,487.18 676.80,488.90 C685.57,493.37 690.25,501.36 690.35,511.98 C690.52,529.93 674.59,541.97 658.33,536.20 ZM 743.00 500.50 L 743.00 487.00 L 753.53 487.00 C769.72,487.00 775.00,490.32 775.00,500.50 C775.00,510.68 769.72,514.00 753.53,514.00 L 743.00 514.00 L 743.00 500.50 ZM 290.75 450.92 C288.90,449.85 288.46,446.41 289.87,444.18 C290.38,443.38 292.06,442.98 294.10,443.18 C296.99,443.45 297.55,443.92 297.82,446.31 C298.37,451.12 294.93,453.36 290.75,450.92 Z" fill="rgb(253,254,253)"/>
</g>
</svg>